<svg width="35" height="35" viewBox="0 0 35 35" fill="none" xmlns="http://www.w3.org/2000/svg">
<path d="M17.5 33.1771C8.85207 33.1771 1.82291 26.1479 1.82291 17.5C1.82291 8.8521 8.85207 1.82294 17.5 1.82294C26.1479 1.82294 33.1771 8.8521 33.1771 17.5C33.1771 26.1479 26.1479 33.1771 17.5 33.1771ZM17.5 4.01044C10.0625 4.01044 4.01041 10.0625 4.01041 17.5C4.01041 24.9375 10.0625 30.9896 17.5 30.9896C24.9375 30.9896 30.9896 24.9375 30.9896 17.5C30.9896 10.0625 24.9375 4.01044 17.5 4.01044Z" fill="#2B2A2A"/>
<path d="M22.9104 23.2313C22.7208 23.2313 22.5313 23.1875 22.3563 23.0708L17.8354 20.3729C16.7125 19.7021 15.8813 18.2292 15.8813 16.9313V10.9521C15.8813 10.3542 16.3771 9.85834 16.975 9.85834C17.5729 9.85834 18.0688 10.3542 18.0688 10.9521V16.9313C18.0688 17.4563 18.5063 18.2292 18.9583 18.4917L23.4792 21.1896C24.0042 21.4958 24.1646 22.1667 23.8583 22.6917C23.6396 23.0417 23.275 23.2313 22.9104 23.2313Z" fill="#2B2A2A"/>
</svg>
