<svg width="35" height="35" viewBox="0 0 35 35" fill="none" xmlns="http://www.w3.org/2000/svg">
<path d="M24.3542 28.7729H10.6458C9.56667 28.7729 8.47292 28 8.10834 26.9938L2.07084 10.0917C1.32709 7.96251 1.86667 6.98543 2.45001 6.54793C3.03334 6.11043 4.12709 5.84793 5.96459 7.16043L11.6521 11.2292C11.8271 11.3313 11.9875 11.375 12.1042 11.3458C12.2354 11.3021 12.3375 11.1854 12.4104 10.9813L14.9771 4.14168C15.75 2.10001 16.8875 1.79376 17.5 1.79376C18.1125 1.79376 19.25 2.10001 20.0229 4.14168L22.5896 10.9813C22.6625 11.1708 22.7646 11.3021 22.8958 11.3458C23.0271 11.3896 23.1875 11.3458 23.3479 11.2146L28.6854 7.40835C30.6396 6.00835 31.7771 6.28543 32.4042 6.73751C33.0167 7.20418 33.5854 8.2396 32.7833 10.5L26.8917 26.9938C26.5271 28 25.4333 28.7729 24.3542 28.7729ZM3.90834 8.47293C3.93751 8.6771 3.99584 8.96876 4.14167 9.34793L10.1792 26.25C10.2375 26.3958 10.5 26.5854 10.6458 26.5854H24.3542C24.5146 26.5854 24.7771 26.3958 24.8208 26.25L30.7125 9.77085C30.9167 9.21668 30.975 8.83751 30.9896 8.61876C30.7708 8.69168 30.4354 8.8521 29.9542 9.2021L24.6167 13.0083C23.8875 13.5188 23.0271 13.6792 22.2542 13.4458C21.4813 13.2125 20.8542 12.6 20.5333 11.7688L17.9667 4.92918C17.7771 4.41876 17.6021 4.17085 17.5 4.05418C17.3979 4.17085 17.2229 4.41876 17.0333 4.9146L14.4667 11.7542C14.1604 12.5854 13.5333 13.1979 12.7458 13.4313C11.9729 13.6646 11.0979 13.5042 10.3833 12.9938L4.69584 8.92501C4.36042 8.69168 4.09792 8.54585 3.90834 8.47293Z" fill="#2B2A2A"/>
<path d="M25.5209 33.1771H9.47919C8.88127 33.1771 8.38544 32.6812 8.38544 32.0833C8.38544 31.4854 8.88127 30.9896 9.47919 30.9896H25.5209C26.1188 30.9896 26.6146 31.4854 26.6146 32.0833C26.6146 32.6812 26.1188 33.1771 25.5209 33.1771Z" fill="#2B2A2A"/>
<path d="M21.1459 21.5104H13.8542C13.2563 21.5104 12.7604 21.0146 12.7604 20.4167C12.7604 19.8188 13.2563 19.3229 13.8542 19.3229H21.1459C21.7438 19.3229 22.2396 19.8188 22.2396 20.4167C22.2396 21.0146 21.7438 21.5104 21.1459 21.5104Z" fill="#2B2A2A"/>
</svg>
