<svg width="36" height="36" viewBox="0 0 36 36" fill="none" xmlns="http://www.w3.org/2000/svg">
<path d="M18 21.2549C14.805 21.2549 12.195 18.6599 12.195 15.4499C12.195 12.2399 14.805 9.65991 18 9.65991C21.195 9.65991 23.805 12.2549 23.805 15.4649C23.805 18.6749 21.195 21.2549 18 21.2549ZM18 11.9099C16.05 11.9099 14.445 13.4999 14.445 15.4649C14.445 17.4299 16.035 19.0199 18 19.0199C19.965 19.0199 21.555 17.4299 21.555 15.4649C21.555 13.4999 19.95 11.9099 18 11.9099Z" fill="white"/>
<path d="M18 34.14C15.78 34.14 13.545 33.3 11.805 31.635C7.38002 27.375 2.49002 20.58 4.33502 12.495C6.00002 5.16 12.405 1.875 18 1.875C18 1.875 18 1.875 18.015 1.875C23.61 1.875 30.015 5.16 31.68 12.51C33.51 20.595 28.62 27.375 24.195 31.635C22.455 33.3 20.22 34.14 18 34.14ZM18 4.125C13.635 4.125 8.02502 6.45 6.54002 12.99C4.92002 20.055 9.36002 26.145 13.38 30C15.975 32.505 20.04 32.505 22.635 30C26.64 26.145 31.08 20.055 29.49 12.99C27.99 6.45 22.365 4.125 18 4.125Z" fill="white"/>
</svg>
