<svg width="35" height="35" viewBox="0 0 35 35" fill="none" xmlns="http://www.w3.org/2000/svg">
<path d="M17.5 18.5938C12.8771 18.5938 9.11458 14.8313 9.11458 10.2084C9.11458 5.58544 12.8771 1.82294 17.5 1.82294C22.1229 1.82294 25.8854 5.58544 25.8854 10.2084C25.8854 14.8313 22.1229 18.5938 17.5 18.5938ZM17.5 4.01044C14.0875 4.01044 11.3021 6.79585 11.3021 10.2084C11.3021 13.6209 14.0875 16.4063 17.5 16.4063C20.9125 16.4063 23.6979 13.6209 23.6979 10.2084C23.6979 6.79585 20.9125 4.01044 17.5 4.01044Z" fill="#2B2A2A"/>
<path d="M30.0273 33.1771C29.4294 33.1771 28.9336 32.6813 28.9336 32.0833C28.9336 27.0521 23.8002 22.9688 17.5002 22.9688C11.2002 22.9688 6.06689 27.0521 6.06689 32.0833C6.06689 32.6813 5.57106 33.1771 4.97314 33.1771C4.37523 33.1771 3.87939 32.6813 3.87939 32.0833C3.87939 25.8563 9.98981 20.7812 17.5002 20.7812C25.0106 20.7812 31.1211 25.8563 31.1211 32.0833C31.1211 32.6813 30.6252 33.1771 30.0273 33.1771Z" fill="#2B2A2A"/>
</svg>
