<svg width="30" height="34" viewBox="0 0 30 34" fill="none" xmlns="http://www.w3.org/2000/svg">
<path d="M15 33.14C12.78 33.14 10.545 32.3 8.80502 30.635C4.38002 26.375 -0.50998 19.58 1.33502 11.495C3.00002 4.16 9.40502 0.875 15 0.875C15 0.875 15 0.875 15.015 0.875C20.61 0.875 27.015 4.16 28.68 11.51C30.51 19.595 25.62 26.375 21.195 30.635C19.455 32.3 17.22 33.14 15 33.14ZM15 3.125C10.635 3.125 5.02502 5.45 3.54002 11.99C1.92002 19.055 6.36002 25.145 10.38 29C12.975 31.505 17.04 31.505 19.635 29C23.64 25.145 28.08 19.055 26.49 11.99C24.99 5.45 19.365 3.125 15 3.125Z" fill="white"/>
</svg>
